# xmcd
#
# Track frame offsets:
#       150
#       33438
#       51386
#       71634
#       92481
#       107842
#       136263
#       160394
#       181684
#
# Disc length: 2752 seconds
#
# Revision: 0
# Processed by: cddbd v1.5.1PL2 Copyright (c) Steve Scherf et al.
# Submitted via: WhereIsIt 3.22
#
DISCID=750abe09
DTITLE=Sade - Diamond Life
DYEAR=1900
DGENRE=
TTITLE0=Somoot Operator
TTITLE1=Your Love Is King
TTITLE2=Hang On To Your Love
TTITLE3=Frankie´s First Affair
TTITLE4=When am I Going To Make a Living
TTITLE5=Cherry Pie
TTITLE6=Sally
TTITLE7=I Will Be You Friend
TTITLE8=Why Can´t We Love Together
EXTD=
EXTT0=
EXTT1=
EXTT2=
EXTT3=
EXTT4=
EXTT5=
EXTT6=
EXTT7=
EXTT8=
PLAYORDER=
